<?xml version="1.0" encoding="UTF-8"?>
<svg xmlns="http://www.w3.org/2000/svg" version="1.1" viewBox="0 0 1920 800" style="shape-rendering:geometricPrecision; text-rendering:geometricPrecision; image-rendering:optimizeQuality; fill-rule:evenodd; clip-rule:evenodd" xmlns:xlink="http://www.w3.org/1999/xlink">
<g><path style="opacity:0.985" fill="currentColor" d="M 1828.5,134.5 C 1841.35,134.015 1852.18,138.348 1861,147.5C 1866.08,156.003 1871.42,164.336 1877,172.5C 1883.58,192.617 1884.25,212.95 1879,233.5C 1869.78,255.952 1859.44,277.952 1848,299.5C 1842.57,312.951 1839.9,326.951 1840,341.5C 1835.94,380.971 1836.94,420.305 1843,459.5C 1850.4,487.696 1859.4,515.363 1870,542.5C 1875.56,561.636 1879.06,581.136 1880.5,601C 1875.05,643.125 1851.38,660.792 1809.5,654C 1786.3,646.134 1768.46,631.634 1756,610.5C 1728.99,559.1 1717.99,504.434 1723,446.5C 1715.55,459.062 1708.89,472.062 1703,485.5C 1696.37,509.673 1690.37,534.007 1685,558.5C 1680.9,574.898 1672.4,588.398 1659.5,599C 1644.26,606.556 1628.26,608.556 1611.5,605C 1583.4,597.893 1566.56,580.06 1561,551.5C 1559.58,541.536 1559.24,531.536 1560,521.5C 1561.73,509.528 1563.23,497.528 1564.5,485.5C 1563.93,474.83 1561.77,464.496 1558,454.5C 1544.26,421.687 1527.93,390.353 1509,360.5C 1504,354.505 1498.67,348.839 1493,343.5C 1492.33,346.833 1492.33,350.167 1493,353.5C 1509.33,443.145 1519,533.478 1522,624.5C 1521.49,637.404 1519.49,650.071 1516,662.5C 1514.05,669.058 1511.05,675.058 1507,680.5C 1500.85,687.088 1493.35,689.255 1484.5,687C 1472.42,683.913 1465.59,676.08 1464,663.5C 1456.92,619.113 1447.92,575.113 1437,531.5C 1432.62,511.242 1428.62,490.909 1425,470.5C 1414.43,403.76 1403.43,337.093 1392,270.5C 1390.56,257.529 1390.23,244.529 1391,231.5C 1398.83,208.165 1415,195.498 1439.5,193.5C 1447.2,194.07 1454.86,194.903 1462.5,196C 1470.22,199.053 1476.05,204.219 1480,211.5C 1482.66,217.49 1485.83,223.156 1489.5,228.5C 1515.66,249.496 1538.16,273.829 1557,301.5C 1585.37,342.565 1609.37,386.231 1629,432.5C 1669.8,341.168 1719.47,255.501 1778,175.5C 1788.27,162.439 1799.77,150.606 1812.5,140C 1817.5,136.924 1822.84,135.09 1828.5,134.5 Z M 1809.5,185.5 C 1811.59,185.318 1813.59,185.652 1815.5,186.5C 1816.61,187.723 1816.78,189.056 1816,190.5C 1809.66,196.505 1803.66,202.838 1798,209.5C 1774.08,242.315 1752.42,276.648 1733,312.5C 1719.68,337.802 1706.35,363.135 1693,388.5C 1691.65,390.019 1690.15,391.352 1688.5,392.5C 1687.45,391.562 1686.78,390.395 1686.5,389C 1693.08,364.672 1702.58,341.505 1715,319.5C 1736.08,280.325 1759.41,242.658 1785,206.5C 1789.24,200.531 1794.08,195.031 1799.5,190C 1802.82,188.17 1806.15,186.67 1809.5,185.5 Z M 1421.5,238.5 C 1424.36,238.055 1426.86,238.722 1429,240.5C 1427.35,260.51 1428.02,280.51 1431,300.5C 1438.15,352.088 1446.82,403.421 1457,454.5C 1457.67,457.167 1457.67,459.833 1457,462.5C 1455.6,464.527 1453.94,464.86 1452,463.5C 1446.94,453.324 1443.27,442.657 1441,431.5C 1428,375.335 1419.5,318.502 1415.5,261C 1415.25,252.8 1417.25,245.3 1421.5,238.5 Z"/></g>
<g><path style="opacity:0.965" fill="currentColor" d="M 988.5,138.5 C 996.507,138.334 1004.51,138.5 1012.5,139C 1023.85,140.522 1026.35,146.022 1020,155.5C 1012.28,161.188 1003.78,165.355 994.5,168C 982.325,170.974 969.992,172.974 957.5,174C 920.629,175.761 883.962,173.761 847.5,168C 837.481,167.235 828.148,164.402 819.5,159.5C 816.415,156.507 815.915,153.174 818,149.5C 823.026,143.599 829.526,140.766 837.5,141C 872.172,140.852 906.838,141.352 941.5,142.5C 957.412,142.28 973.079,140.946 988.5,138.5 Z"/></g>
<g><path style="opacity:0.963" fill="currentColor" d="M 656.5,146.5 C 669.209,146.152 681.875,146.652 694.5,148C 710.51,150.249 723.343,157.749 733,170.5C 736.365,177.557 736.699,184.557 734,191.5C 728.456,197.009 722.289,197.843 715.5,194C 710.351,189.515 704.684,185.848 698.5,183C 681.069,179.444 663.736,179.777 646.5,184C 642.835,185.497 639.502,187.497 636.5,190C 630.532,196.969 624.199,203.636 617.5,210C 611.058,214.124 605.892,212.957 602,206.5C 596.992,188.523 601.825,173.689 616.5,162C 628.586,153.365 641.919,148.198 656.5,146.5 Z"/></g>
<g><path style="opacity:0.959" fill="currentColor" d="M 171.5,159.5 C 182.111,158.434 192.111,160.267 201.5,165C 207.236,171.832 207.903,179.166 203.5,187C 201.285,188.044 198.952,188.71 196.5,189C 170.59,188.304 147.257,195.637 126.5,211C 109.833,225.667 93.1667,240.333 76.5,255C 63.2688,262.138 57.7688,258.305 60,243.5C 63.6093,232.276 69.276,222.276 77,213.5C 92.8576,195.005 111.691,180.505 133.5,170C 145.918,165.132 158.585,161.632 171.5,159.5 Z"/></g>
<g><path style="opacity:0.961" fill="currentColor" d="M 1246.5,166.5 C 1262.45,165.389 1277.45,168.555 1291.5,176C 1297.13,179.627 1301.3,184.46 1304,190.5C 1306.43,201.398 1302.1,207.065 1291,207.5C 1281.53,205.012 1272.03,202.512 1262.5,200C 1246.38,199.115 1231.38,202.781 1217.5,211C 1207.61,218.437 1197.95,226.104 1188.5,234C 1177.56,235.699 1171.89,231.032 1171.5,220C 1173.05,206.906 1179.05,196.24 1189.5,188C 1206.59,175.583 1225.59,168.417 1246.5,166.5 Z"/></g>
<g><path style="opacity:0.981" fill="currentColor" d="M 1085.5,170.5 C 1100.97,168.636 1115.64,171.136 1129.5,178C 1146.37,192.949 1151.2,211.116 1144,232.5C 1137,244.763 1126.5,252.263 1112.5,255C 1064,258.751 1015.83,264.584 968,272.5C 971.278,303.727 973.612,335.06 975,366.5C 976.855,420.726 974.189,474.726 967,528.5C 965.708,546.11 958.208,560.276 944.5,571C 925.555,580.109 908.055,577.942 892,564.5C 884,554.837 880.167,543.67 880.5,531C 890.396,446.081 897.063,360.914 900.5,275.5C 874.062,275.104 847.729,273.271 821.5,270C 783.91,265.442 769.743,244.942 779,208.5C 782.223,202.277 787.057,197.777 793.5,195C 802.741,190.94 812.408,188.606 822.5,188C 844.02,187.194 865.52,187.361 887,188.5C 909.487,187.625 931.987,186.792 954.5,186C 998.353,181.136 1042.02,175.97 1085.5,170.5 Z M 870.5,204.5 C 878.228,204.189 885.895,204.689 893.5,206C 896.15,208.082 895.816,209.749 892.5,211C 887.297,212.841 881.964,214.174 876.5,215C 854.624,217.147 832.79,216.98 811,214.5C 809.566,214.07 808.399,213.236 807.5,212C 811.146,209.752 815.146,208.418 819.5,208C 836.623,206.34 853.623,205.173 870.5,204.5 Z M 924.5,210.5 C 928.35,210.701 929.35,212.534 927.5,216C 923.537,216.118 922.537,214.284 924.5,210.5 Z M 917.5,324.5 C 919.017,324.511 920.184,325.177 921,326.5C 922.636,358.022 920.97,389.688 916,421.5C 915.313,425.58 914.313,429.58 913,433.5C 911.447,437.299 910.114,437.299 909,433.5C 907.927,419.312 907.927,404.979 909,390.5C 910.12,369.729 912.12,349.063 915,328.5C 915.662,327.016 916.496,325.683 917.5,324.5 Z M 908.5,468.5 C 914.168,467.641 915.501,469.474 912.5,474C 911.207,474.49 909.873,474.657 908.5,474.5C 908.5,472.5 908.5,470.5 908.5,468.5 Z"/></g>
<g><path style="opacity:0.983" fill="currentColor" d="M 519.5,193.5 C 537.058,192.184 551.891,197.85 564,210.5C 571.061,221.15 573.394,232.817 571,245.5C 567.481,258.352 559.648,267.519 547.5,273C 528.12,278.71 508.453,283.21 488.5,286.5C 489.966,332.321 490.966,378.154 491.5,424C 492.233,452.814 490.566,481.48 486.5,510C 486.675,511.658 487.342,512.991 488.5,514C 505.304,515.932 520.637,521.599 534.5,531C 549.568,544.921 552.735,561.088 544,579.5C 534.286,591.449 521.786,598.949 506.5,602C 496.478,601.999 486.478,601.332 476.5,600C 447.167,599.667 417.833,599.333 388.5,599C 376.862,598.671 365.529,596.671 354.5,593C 343.298,587.786 337.131,578.952 336,566.5C 332.058,548.553 338.224,535.386 354.5,527C 376.318,518.419 398.984,514.252 422.5,514.5C 422.249,467.328 422.582,420.161 423.5,373C 422.826,347.498 422.159,321.998 421.5,296.5C 408.125,296.857 394.792,296.357 381.5,295C 354.349,289.864 343.183,273.697 348,246.5C 351.301,237.531 357.134,230.697 365.5,226C 380.548,219.32 396.215,214.654 412.5,212C 448.415,206.459 484.082,200.293 519.5,193.5 Z M 420.5,228.5 C 425.179,228.334 429.845,228.501 434.5,229C 438.931,230.704 440.597,233.704 439.5,238C 420.117,239.096 401.783,244.096 384.5,253C 378.399,254.903 376.566,253.069 379,247.5C 385.829,240.499 393.996,235.665 403.5,233C 409.276,231.419 414.942,229.919 420.5,228.5 Z M 403.5,539.5 C 409.659,539.216 415.659,540.049 421.5,542C 424.89,543.006 425.89,545.006 424.5,548C 407.648,548.023 391.482,551.19 376,557.5C 374.173,555.586 374.173,553.586 376,551.5C 378.989,547.509 382.822,544.676 387.5,543C 392.905,541.504 398.239,540.337 403.5,539.5 Z"/></g>
<g><path style="opacity:0.979" fill="currentColor" d="M 668.5,203.5 C 713.023,200.998 743.523,220.331 760,261.5C 775.899,305.693 777.232,350.36 764,395.5C 761.754,403.832 757.587,410.998 751.5,417C 743.871,422.08 735.871,422.747 727.5,419C 724.533,416.9 722.7,414.066 722,410.5C 721.333,404.167 721.333,397.833 722,391.5C 727.591,368.009 728.591,344.343 725,320.5C 721.299,296.501 708.799,279.001 687.5,268C 680.545,266.157 673.878,267.157 667.5,271C 649.744,285.345 639.411,303.845 636.5,326.5C 638.344,340.875 642.51,354.541 649,367.5C 656.609,379.441 664.609,391.108 673,402.5C 701.591,436.754 728.258,472.42 753,509.5C 766.204,529.575 775.87,551.242 782,574.5C 787.163,603.354 778.329,626.854 755.5,645C 729.401,661.752 701.068,667.086 670.5,661C 634.344,651.846 610.844,629.346 600,593.5C 597.308,586.24 596.975,578.907 599,571.5C 603.297,567.511 608.13,566.678 613.5,569C 621.819,572.995 630.485,575.995 639.5,578C 657.206,578.823 674.873,578.323 692.5,576.5C 684.417,561.994 675.583,547.994 666,534.5C 645.243,506.654 624.243,478.987 603,451.5C 586.618,429.074 573.618,404.741 564,378.5C 556.1,351.858 557.1,325.525 567,299.5C 578.125,267.379 596.958,240.879 623.5,220C 637.479,211.399 652.479,205.899 668.5,203.5 Z M 632.5,238.5 C 634.527,238.338 636.527,238.505 638.5,239C 639.535,240.507 639.368,242.007 638,243.5C 628.399,251.098 619.399,259.431 611,268.5C 601.697,282.341 596.364,297.674 595,314.5C 592.665,339.658 597.831,363.158 610.5,385C 609.975,385.692 609.308,386.192 608.5,386.5C 602.476,382.643 597.643,377.643 594,371.5C 578.839,344.582 577.506,316.915 590,288.5C 597.698,265.996 611.864,249.329 632.5,238.5 Z M 637.5,417.5 C 642.172,417.488 644.006,419.822 643,424.5C 639.607,428.098 637.107,427.265 635.5,422C 636.044,420.415 636.711,418.915 637.5,417.5 Z"/></g>
<g><path style="opacity:0.98" fill="currentColor" d="M 192.5,204.5 C 208.44,203.934 224.107,205.768 239.5,210C 248.6,213.96 255.766,220.126 261,228.5C 275.936,254.08 282.77,281.747 281.5,311.5C 282.347,327.732 279.847,343.398 274,358.5C 269.45,366.05 263.283,371.884 255.5,376C 239.753,380.546 229.586,375.046 225,359.5C 224.333,354.833 224.333,350.167 225,345.5C 229.33,323.903 229.663,302.237 226,280.5C 225.197,274.417 223.03,268.917 219.5,264C 215.185,262.105 210.852,262.105 206.5,264C 191.385,271.132 179.218,281.632 170,295.5C 138.958,338.956 122.458,387.456 120.5,441C 120.804,506.662 151.137,526.329 211.5,500C 228.486,491.509 245.152,482.509 261.5,473C 275.04,466.098 289.373,461.931 304.5,460.5C 327.414,460.995 337.914,472.662 336,495.5C 334.996,508.164 330.663,519.497 323,529.5C 306.2,546.321 287.033,559.821 265.5,570C 234.08,586.73 200.58,595.897 165,597.5C 107.724,595.208 68.3904,567.542 47,514.5C 34.8462,477.99 31.5129,440.657 37,402.5C 45.6906,339.618 72.524,286.118 117.5,242C 139.32,223.09 164.32,210.59 192.5,204.5 Z M 112.5,278.5 C 114.117,279.038 115.784,279.371 117.5,279.5C 117.66,281.199 117.494,282.866 117,284.5C 106.534,295.752 98.8676,308.752 94,323.5C 88.9874,336.871 84.9874,350.538 82,364.5C 78.7741,382.189 75.4407,399.856 72,417.5C 71.7398,419.618 70.7398,421.284 69,422.5C 67.2494,420.51 66.2494,418.177 66,415.5C 65.2539,373.151 74.5873,333.151 94,295.5C 98.484,287.843 104.651,282.176 112.5,278.5 Z M 71.5,461.5 C 77.9982,463.876 77.9982,466.876 71.5,470.5C 67.5264,467.413 67.5264,464.413 71.5,461.5 Z"/></g>
<g><path style="opacity:0.98" fill="currentColor" d="M 1241.5,226.5 C 1261.39,226.451 1279.06,232.617 1294.5,245C 1309.39,261.5 1316.73,281 1316.5,303.5C 1315.95,318.719 1312.11,333.053 1305,346.5C 1299.12,354.774 1291.12,358.441 1281,357.5C 1269.91,358.628 1262.58,353.961 1259,343.5C 1257.1,331.241 1255.77,318.908 1255,306.5C 1254.2,300.194 1250.7,296.861 1244.5,296.5C 1232.27,299.371 1222.11,305.704 1214,315.5C 1197.24,335.947 1184.24,358.613 1175,383.5C 1173.71,388.11 1173.38,392.777 1174,397.5C 1175.53,400.578 1178.03,402.412 1181.5,403C 1203.74,410.983 1226.41,412.483 1249.5,407.5C 1259.35,407.064 1268.35,409.564 1276.5,415C 1284.94,423.326 1287.44,433.159 1284,444.5C 1281.13,447.704 1277.96,450.537 1274.5,453C 1257.46,458.51 1240.46,464.177 1223.5,470C 1199.63,480.202 1179.46,495.369 1163,515.5C 1150.81,530.733 1145.48,548.067 1147,567.5C 1150.14,573.83 1155.3,577.33 1162.5,578C 1180.32,578.774 1197.98,577.441 1215.5,574C 1230.37,569.95 1245.03,565.284 1259.5,560C 1281.09,551.138 1302.75,542.471 1324.5,534C 1337.12,529.509 1350.12,527.009 1363.5,526.5C 1380.36,525.372 1392.86,532.039 1401,546.5C 1403.8,559.219 1402.14,571.552 1396,583.5C 1389.58,590.799 1382.41,597.299 1374.5,603C 1316.33,635.612 1253.99,655.612 1187.5,663C 1153.62,667.531 1122.96,659.864 1095.5,640C 1068.25,613.506 1059.41,581.673 1069,544.5C 1079.73,504.638 1101.9,472.972 1135.5,449.5C 1118.47,434.604 1109.8,415.771 1109.5,393C 1115.73,339.873 1137.73,294.54 1175.5,257C 1194.44,240.027 1216.44,229.861 1241.5,226.5 Z M 1195.5,266.5 C 1198.08,267.228 1200.75,267.728 1203.5,268C 1204.52,269.049 1204.68,270.216 1204,271.5C 1200.94,274.614 1197.44,277.114 1193.5,279C 1182.33,289.833 1173.5,302.333 1167,316.5C 1156.1,340.431 1148.77,365.431 1145,391.5C 1144.36,394.112 1143.19,396.446 1141.5,398.5C 1139.85,397.221 1138.69,395.555 1138,393.5C 1135.03,385.614 1134.7,377.614 1137,369.5C 1143.85,337.606 1156.52,308.273 1175,281.5C 1180.36,274.284 1187.19,269.284 1195.5,266.5 Z M 1123.5,490.5 C 1125.86,490.337 1128.19,490.503 1130.5,491C 1131.55,492.388 1131.72,493.888 1131,495.5C 1126.59,500.656 1122.92,506.323 1120,512.5C 1118.32,514.351 1116.48,516.018 1114.5,517.5C 1112.8,516.636 1111.64,515.303 1111,513.5C 1109.95,502.936 1114.11,495.269 1123.5,490.5 Z"/></g>
<g><path style="opacity:0.959" fill="currentColor" d="M 391.5,322.5 C 400.359,322.521 405.859,326.855 408,335.5C 412.809,352.831 415.476,370.497 416,388.5C 416.993,415.215 416.326,441.882 414,468.5C 412.937,474.022 411.27,479.356 409,484.5C 397.362,494.662 391.028,491.996 390,476.5C 387.585,445.209 385.918,413.876 385,382.5C 383.863,367.297 382.363,352.131 380.5,337C 381.002,329.676 384.669,324.842 391.5,322.5 Z"/></g>
<g><path style="opacity:0.962" fill="currentColor" d="M 1298.5,487.5 C 1308.42,487.115 1314.76,491.615 1317.5,501C 1316.47,505.726 1314.14,509.726 1310.5,513C 1280.96,534.767 1248.29,550.1 1212.5,559C 1203.21,560.442 1193.87,560.776 1184.5,560C 1167.22,554.82 1165.22,546.154 1178.5,534C 1191.47,529.09 1204.8,525.424 1218.5,523C 1238.6,514.118 1258.26,504.451 1277.5,494C 1284.41,491.082 1291.41,488.915 1298.5,487.5 Z"/></g>
<g><path style="opacity:0.958" fill="currentColor" d="M 1663.5,612.5 C 1666.97,611.875 1669.8,612.875 1672,615.5C 1672.59,640.435 1660.42,654.601 1635.5,658C 1610.55,660.679 1587.55,655.345 1566.5,642C 1562.3,638.593 1559.63,634.26 1558.5,629C 1559.59,623.242 1563.09,620.408 1569,620.5C 1581.3,622.36 1593.46,624.86 1605.5,628C 1618.65,629.773 1631.31,628.106 1643.5,623C 1650.1,619.201 1656.77,615.701 1663.5,612.5 Z"/></g>
</svg>
