<svg width="138" height="123" viewBox="0 0 138 123" fill="none" xmlns="http://www.w3.org/2000/svg">
<path d="M48.1582 50.3927C50.5231 46.3378 55.7271 44.9676 59.7822 47.3322C63.837 49.6972 65.2076 54.9021 62.8428 58.9572L45.6875 88.3752C41.2171 96.0416 46.7472 105.668 55.6221 105.668H104.001C108.695 105.669 112.501 109.474 112.501 114.168C112.501 118.862 108.695 122.668 104.001 122.668H55.6221C33.6277 122.668 19.9221 98.8104 31.0019 79.8107L48.1582 50.3927ZM98.1933 1.34585C102.24 -1.03227 107.45 0.320649 109.828 4.36734L133.258 44.2394C144.421 63.2384 130.722 87.1786 108.686 87.1789L74 87.1779C69.3057 87.1778 65.5002 83.3721 65.5 78.6779C65.5002 73.9836 69.3057 70.1779 74 70.1779H108.686C117.577 70.1776 123.105 60.5179 118.601 52.8517L95.1719 12.9806C92.7937 8.9333 94.1461 3.72415 98.1933 1.34585ZM25.8769 14.4894C36.681 -4.64917 64.1669 -4.87341 75.2822 14.0861L93.333 44.8752C95.7071 48.9249 94.3485 54.1338 90.2988 56.508C86.2492 58.8817 81.0412 57.5231 78.667 53.4738L60.6162 22.6837C56.1311 15.034 45.0414 15.1241 40.6816 22.8459L15.9023 66.7384C13.5946 70.8264 8.41026 72.2698 4.32225 69.9621C0.234528 67.6542 -1.20809 62.4689 1.09959 58.381L25.8769 14.4894Z" fill="black"/>
</svg>
